<mxfile host="app.diagrams.net" modified="2021-01-07T01:57:23.900Z" agent="5.0 (Windows NT 6.1; Win64; x64) AppleWebKit/537.36 (KHTML, like Gecko) Chrome/76.0.3809.132 Safari/537.36" etag="CIdh1_XFnRWyhCp9M7EK" version="12.9.14" type="github">
  <diagram id="C7JiWXiiRQbd8pdOPjNT" name="Page-1">
    <mxGraphModel dx="1156" dy="667" grid="1" gridSize="10" guides="1" tooltips="1" connect="1" arrows="1" fold="1" page="1" pageScale="1" pageWidth="827" pageHeight="1169" math="0" shadow="0">
      <root>
        <mxCell id="0" />
        <mxCell id="1" parent="0" />
      </root>
    </mxGraphModel>
  </diagram>
</mxfile>
